<svg width="24" height="18" viewBox="0 0 24 18" fill="none" xmlns="http://www.w3.org/2000/svg">
<path d="M20.0293 0.000412908C19.8931 -0.00350272 19.7575 0.0204652 19.6309 0.0708451C19.5043 0.121225 19.3893 0.196954 19.293 0.293382L17.2578 2.32854C15.6877 1.54601 13.9127 1.00041 12 1.00041C8.66667 1.00041 5.73358 2.63204 3.61914 4.35002C2.56192 5.20901 1.70591 6.09459 1.09375 6.85979C0.78767 7.24239 0.542283 7.59292 0.357422 7.91643C0.172561 8.23994 0 8.45875 0 9.00041C0 9.54208 0.172561 9.76089 0.357422 10.0844C0.542283 10.4079 0.78767 10.7584 1.09375 11.141C1.70591 11.9062 2.56192 12.7918 3.61914 13.6508C4.03176 13.9861 4.48322 14.3141 4.95508 14.6313L3.29297 16.2934C3.10548 16.4809 3.00015 16.7352 3.00015 17.0004C3.00015 17.2656 3.10548 17.5199 3.29297 17.7074C3.4805 17.8949 3.73482 18.0003 4 18.0003C4.26518 18.0003 4.5195 17.8949 4.70703 17.7074L6.74219 15.6723C8.31229 16.4548 10.0873 17.0004 12 17.0004C15.3333 17.0004 18.2664 15.3688 20.3809 13.6508C21.4381 12.7918 22.2941 11.9062 22.9062 11.141C23.2123 10.7584 23.4577 10.4079 23.6426 10.0844C23.8274 9.76089 24 9.54208 24 9.00041C24 8.45875 23.8274 8.23994 23.6426 7.91643C23.4577 7.59292 23.2123 7.24239 22.9062 6.85979C22.2941 6.09459 21.4381 5.20901 20.3809 4.35002C19.9682 4.01477 19.5168 3.68674 19.0449 3.36955L20.707 1.70744C20.8945 1.51991 20.9998 1.26559 20.9998 1.00041C20.9998 0.735233 20.8945 0.480912 20.707 0.293382C20.5268 0.112847 20.2843 0.00803989 20.0293 0.000412908ZM12 3.00041C13.2968 3.00041 14.5673 3.32771 15.75 3.83635L12.0684 7.51799C12.0231 7.34919 12.0001 7.17518 12 7.00041C12.0002 6.61555 12.1114 6.23892 12.3203 5.91569C12.5292 5.59246 12.8269 5.33638 13.1777 5.17815C12.7962 5.06046 12.3992 5.00055 12 5.00041C11.9798 5.00026 11.9596 5.00026 11.9395 5.00041C10.8891 5.01631 9.88719 5.44475 9.15009 6.19318C8.41299 6.94161 7.99988 7.94995 8 9.00041C8.00017 9.71488 8.1917 10.4163 8.55469 11.0317L6.39844 13.1879C5.85721 12.8471 5.34745 12.4791 4.88086 12.1C3.93808 11.334 3.16909 10.5321 2.65625 9.89104C2.39983 9.57051 2.20772 9.28823 2.0957 9.09221C2.07328 9.05297 2.07384 9.03519 2.06055 9.00041C2.07384 8.96564 2.07328 8.94785 2.0957 8.90862C2.20772 8.71259 2.39983 8.43031 2.65625 8.10979C3.16909 7.46874 3.93808 6.66681 4.88086 5.9008C6.76642 4.36879 9.33333 3.00041 12 3.00041ZM17.6016 4.81291C18.1428 5.15372 18.6525 5.5217 19.1191 5.9008C20.0619 6.66681 20.8309 7.46874 21.3438 8.10979C21.6002 8.43031 21.7923 8.71259 21.9043 8.90862C21.9267 8.94785 21.9262 8.96564 21.9395 9.00041C21.9262 9.03519 21.9267 9.05297 21.9043 9.09221C21.7923 9.28823 21.6002 9.57051 21.3438 9.89104C20.8309 10.5321 20.0619 11.334 19.1191 12.1C17.2336 13.632 14.6667 15.0004 12 15.0004C10.7032 15.0004 9.43271 14.6731 8.25 14.1645L9.96875 12.4457C10.5841 12.8087 11.2855 13.0002 12 13.0004C13.0609 13.0004 14.0783 12.579 14.8284 11.8288C15.5786 11.0787 16 10.0613 16 9.00041C15.9997 8.60182 15.9398 8.20551 15.8223 7.82463C15.6638 8.17509 15.4075 8.47241 15.0843 8.68095C14.7611 8.8895 14.3846 9.00041 14 9.00041C13.8252 9.00034 13.6512 8.97736 13.4824 8.93205L17.6016 4.81291Z" fill="white"/>
</svg>
