<svg width="17" height="16" viewBox="0 0 17 16" fill="none" xmlns="http://www.w3.org/2000/svg">
<g clip-path="url(#clip0_2276_2096)">
<path d="M14.1667 1.33333H13.4583V0.666667C13.4583 0.489856 13.3837 0.320286 13.2509 0.195262C13.118 0.0702379 12.9379 0 12.75 0C12.5621 0 12.382 0.0702379 12.2491 0.195262C12.1163 0.320286 12.0417 0.489856 12.0417 0.666667V1.33333H4.95833V0.666667C4.95833 0.489856 4.88371 0.320286 4.75087 0.195262C4.61803 0.0702379 4.43786 0 4.25 0C4.06214 0 3.88197 0.0702379 3.74913 0.195262C3.61629 0.320286 3.54167 0.489856 3.54167 0.666667V1.33333H2.83333C2.08189 1.33333 1.36122 1.61429 0.829864 2.11438C0.298511 2.61448 0 3.29276 0 4L0 13.3333C0 14.0406 0.298511 14.7189 0.829864 15.219C1.36122 15.719 2.08189 16 2.83333 16H14.1667C14.9181 16 15.6388 15.719 16.1701 15.219C16.7015 14.7189 17 14.0406 17 13.3333V4C17 3.29276 16.7015 2.61448 16.1701 2.11438C15.6388 1.61429 14.9181 1.33333 14.1667 1.33333ZM15.5833 13.3333C15.5833 13.687 15.4341 14.0261 15.1684 14.2761C14.9027 14.5262 14.5424 14.6667 14.1667 14.6667H2.83333C2.45761 14.6667 2.09728 14.5262 1.8316 14.2761C1.56592 14.0261 1.41667 13.687 1.41667 13.3333V4C1.41667 3.64638 1.56592 3.30724 1.8316 3.05719C2.09728 2.80714 2.45761 2.66667 2.83333 2.66667H3.54167V3.33333C3.54167 3.51014 3.61629 3.67971 3.74913 3.80474C3.88197 3.92976 4.06214 4 4.25 4C4.43786 4 4.61803 3.92976 4.75087 3.80474C4.88371 3.67971 4.95833 3.51014 4.95833 3.33333V2.66667H12.0417V3.33333C12.0417 3.51014 12.1163 3.67971 12.2491 3.80474C12.382 3.92976 12.5621 4 12.75 4C12.9379 4 13.118 3.92976 13.2509 3.80474C13.3837 3.67971 13.4583 3.51014 13.4583 3.33333V2.66667H14.1667C14.5424 2.66667 14.9027 2.80714 15.1684 3.05719C15.4341 3.30724 15.5833 3.64638 15.5833 4V13.3333Z" fill="#003459"/>
<path d="M13.4583 4.6665H3.54167C3.3538 4.6665 3.17364 4.73674 3.0408 4.86177C2.90796 4.98679 2.83333 5.15636 2.83333 5.33317C2.83333 5.50998 2.90796 5.67955 3.0408 5.80458C3.17364 5.9296 3.3538 5.99984 3.54167 5.99984H13.4583C13.6462 5.99984 13.8264 5.9296 13.9592 5.80458C14.092 5.67955 14.1667 5.50998 14.1667 5.33317C14.1667 5.15636 14.092 4.98679 13.9592 4.86177C13.8264 4.73674 13.6462 4.6665 13.4583 4.6665Z" fill="#003459"/>
<path d="M4.95833 8H3.54167C3.3538 8 3.17364 8.07024 3.0408 8.19526C2.90796 8.32029 2.83333 8.48986 2.83333 8.66667C2.83333 8.84348 2.90796 9.01305 3.0408 9.13807C3.17364 9.2631 3.3538 9.33333 3.54167 9.33333H4.95833C5.14619 9.33333 5.32636 9.2631 5.4592 9.13807C5.59204 9.01305 5.66667 8.84348 5.66667 8.66667C5.66667 8.48986 5.59204 8.32029 5.4592 8.19526C5.32636 8.07024 5.14619 8 4.95833 8Z" fill="#003459"/>
<path d="M4.95833 11.3335H3.54167C3.3538 11.3335 3.17364 11.4037 3.0408 11.5288C2.90796 11.6538 2.83333 11.8234 2.83333 12.0002C2.83333 12.177 2.90796 12.3465 3.0408 12.4716C3.17364 12.5966 3.3538 12.6668 3.54167 12.6668H4.95833C5.14619 12.6668 5.32636 12.5966 5.4592 12.4716C5.59204 12.3465 5.66667 12.177 5.66667 12.0002C5.66667 11.8234 5.59204 11.6538 5.4592 11.5288C5.32636 11.4037 5.14619 11.3335 4.95833 11.3335Z" fill="#003459"/>
<path d="M9.20833 8H7.79167C7.6038 8 7.42364 8.07024 7.2908 8.19526C7.15796 8.32029 7.08333 8.48986 7.08333 8.66667C7.08333 8.84348 7.15796 9.01305 7.2908 9.13807C7.42364 9.2631 7.6038 9.33333 7.79167 9.33333H9.20833C9.39619 9.33333 9.57636 9.2631 9.7092 9.13807C9.84204 9.01305 9.91667 8.84348 9.91667 8.66667C9.91667 8.48986 9.84204 8.32029 9.7092 8.19526C9.57636 8.07024 9.39619 8 9.20833 8Z" fill="#003459"/>
<path d="M9.20833 11.3335H7.79167C7.6038 11.3335 7.42364 11.4037 7.2908 11.5288C7.15796 11.6538 7.08333 11.8234 7.08333 12.0002C7.08333 12.177 7.15796 12.3465 7.2908 12.4716C7.42364 12.5966 7.6038 12.6668 7.79167 12.6668H9.20833C9.39619 12.6668 9.57636 12.5966 9.7092 12.4716C9.84204 12.3465 9.91667 12.177 9.91667 12.0002C9.91667 11.8234 9.84204 11.6538 9.7092 11.5288C9.57636 11.4037 9.39619 11.3335 9.20833 11.3335Z" fill="#003459"/>
<path d="M13.4583 8H12.0417C11.8538 8 11.6736 8.07024 11.5408 8.19526C11.408 8.32029 11.3333 8.48986 11.3333 8.66667C11.3333 8.84348 11.408 9.01305 11.5408 9.13807C11.6736 9.2631 11.8538 9.33333 12.0417 9.33333H13.4583C13.6462 9.33333 13.8264 9.2631 13.9592 9.13807C14.092 9.01305 14.1667 8.84348 14.1667 8.66667C14.1667 8.48986 14.092 8.32029 13.9592 8.19526C13.8264 8.07024 13.6462 8 13.4583 8Z" fill="#003459"/>
<path d="M13.4583 11.3335H12.0417C11.8538 11.3335 11.6736 11.4037 11.5408 11.5288C11.408 11.6538 11.3333 11.8234 11.3333 12.0002C11.3333 12.177 11.408 12.3465 11.5408 12.4716C11.6736 12.5966 11.8538 12.6668 12.0417 12.6668H13.4583C13.6462 12.6668 13.8264 12.5966 13.9592 12.4716C14.092 12.3465 14.1667 12.177 14.1667 12.0002C14.1667 11.8234 14.092 11.6538 13.9592 11.5288C13.8264 11.4037 13.6462 11.3335 13.4583 11.3335Z" fill="#003459"/>
</g>
<defs>
<clipPath id="clip0_2276_2096">
<rect width="17" height="16" fill="white"/>
</clipPath>
</defs>
</svg>
