<svg width="12" height="9" viewBox="0 0 12 9" fill="none" xmlns="http://www.w3.org/2000/svg">
<path d="M11.6516 1.25C11.6516 1.4579 11.5723 1.6659 11.4136 1.82434L4.91357 8.32434C4.75552 8.48379 4.54731 8.5625 4.33911 8.5625C4.13091 8.5625 3.92321 8.48315 3.76478 8.32446L0.514775 5.07446C0.356084 4.91641 0.276611 4.7082 0.276611 4.5C0.276611 4.03586 0.656201 3.6875 1.08911 3.6875C1.29701 3.6875 1.50501 3.76685 1.66345 3.92554L4.33911 6.60234L10.2653 0.676172C10.4227 0.516973 10.6309 0.4375 10.8391 0.4375C11.2733 0.4375 11.6516 0.785352 11.6516 1.25Z" fill="#206D30"/>
</svg>
