<svg width="8" height="9" viewBox="0 0 8 9" fill="none" xmlns="http://www.w3.org/2000/svg">
<path d="M7.573 7.05029L5.02222 4.49951L7.573 1.94873C7.84839 1.67334 7.84839 1.22998 7.573 0.95459C7.29761 0.679199 6.85425 0.679199 6.57886 0.95459L4.02808 3.50537L1.4773 0.95459C1.2019 0.679199 0.758545 0.679199 0.483154 0.95459C0.207764 1.22998 0.207764 1.67334 0.483154 1.94873L3.03394 4.49951L0.483154 7.05029C0.207764 7.32568 0.207764 7.76904 0.483154 8.04443C0.758545 8.31983 1.2019 8.31983 1.4773 8.04443L4.02808 5.49365L6.57886 8.04443C6.85425 8.31983 7.29761 8.31983 7.573 8.04443C7.84644 7.76904 7.84644 7.32373 7.573 7.05029Z" fill="#E02847"/>
</svg>
