<svg width="18" height="20" viewBox="0 0 18 20" fill="none" xmlns="http://www.w3.org/2000/svg">
<mask id="path-1-outside-1_2128_2324" maskUnits="userSpaceOnUse" x="0" y="0" width="18" height="20" fill="black">
<rect fill="white" width="18" height="20"/>
<path d="M15.8607 5.41899L15.8622 5.5241C15.8636 5.57997 15.8643 5.63368 15.8649 5.68686C15.8497 7.32237 15.4773 7.99079 15.0453 8.7645L14.9793 8.88285C14.4809 9.7391 13.9981 10.7214 14.0107 12.5283C14.012 15.0014 13.5568 16.2813 13.174 16.9193C12.7233 17.666 12.4626 17.8586 11.9067 17.8586C11.8434 17.8586 11.5146 17.8439 11.2479 17.5549C10.9826 17.2676 10.8753 16.8188 10.9274 16.221C11.0163 15.2141 10.8775 13.9745 10.5575 12.9057C10.4158 12.4447 10.2452 11.953 9.96002 11.4962C9.72169 11.1146 9.42459 10.9214 9.07665 10.9214C8.63822 10.9214 8.23746 11.2229 8.05033 11.5034C7.75248 11.9494 7.59425 12.4604 7.46685 12.8718L7.4655 12.8762L7.45541 12.9082C7.13584 13.9807 7.119 15.0278 7.10549 15.8688C7.09972 16.2283 7.09395 16.5678 7.06528 16.8588C7.03409 17.2572 6.75268 17.8586 6.10764 17.8586C5.4992 17.8586 5.27926 17.6477 4.83938 16.9209C4.45647 16.2804 4.00109 15.0005 4.00307 12.5299C4.01623 10.7216 3.53362 9.74 3.03786 8.88912L2.9674 8.76226C2.53551 7.98885 2.16224 7.32039 2.14872 5.68937C2.14872 5.64317 2.14944 5.59662 2.14998 5.54809L2.15143 5.42813C2.19415 4.28037 2.616 3.47497 3.4781 2.88444C4.02506 2.51684 4.75285 2.27386 5.58447 2.18021C5.59385 2.17896 5.6034 2.17842 5.61278 2.17824L6.86265 2.16177C6.87112 2.16141 6.88068 2.16195 6.88897 2.16266C7.62883 2.22157 8.35446 2.39132 8.87943 2.62875L9.00634 2.68479L9.13669 2.62785C9.81363 2.32328 10.7585 2.14135 11.6609 2.14135H11.6813C12.8126 2.14135 13.8191 2.40439 14.5321 2.88176C15.3963 3.47443 15.8178 4.28001 15.8607 5.41899Z"/>
<path d="M15.9986 5.52921L15.9967 5.41354C15.9516 4.2264 15.5108 3.38536 14.6054 2.76457C13.8688 2.27163 12.8344 2 11.6756 2H11.6545C10.7327 2 9.76605 2.18694 9.07215 2.49867L9.00004 2.53055L8.9319 2.50064C8.38457 2.25301 7.66075 2.08308 6.89403 2.0222C6.88123 2.02113 6.86753 2.02059 6.85455 2.02095L5.60467 2.03724C5.59025 2.03742 5.57637 2.03814 5.56213 2.03975C4.70779 2.1359 3.95837 2.38694 3.39121 2.76815C2.48892 3.3859 2.04777 4.22675 2.00306 5.42661L2.00144 5.54318C2.00072 5.59332 2 5.6413 2 5.69001C2.01442 7.35757 2.39553 8.04013 2.83685 8.83085L2.9086 8.95941C3.3941 9.7931 3.86715 10.7554 3.85453 12.5294C3.85236 15.0323 4.31856 16.3373 4.71085 16.9932C5.14388 17.7083 5.39068 17.9996 6.10098 17.9996C6.76423 17.9996 7.15651 17.4285 7.20032 16.8721C7.22934 16.5758 7.23493 16.2341 7.2407 15.8723C7.25422 15.0395 7.27081 14.0033 7.58503 12.9493L7.59369 12.9212C7.71844 12.5167 7.87366 12.0132 8.16211 11.5812C8.33409 11.3235 8.70132 11.0624 9.07017 11.0624C9.36583 11.0624 9.62236 11.2336 9.83293 11.5702C10.1098 12.0145 10.277 12.4952 10.4149 12.9461C10.73 13.9986 10.8666 15.2185 10.7798 16.2091C10.7233 16.8478 10.8436 17.3327 11.1365 17.6507C11.4358 17.9748 11.7967 18 11.9002 18C12.5719 18 12.86 17.7033 13.2896 16.9919C13.6812 16.3382 14.1474 15.0334 14.1459 12.5273C14.1333 10.7566 14.6069 9.79328 15.0972 8.95099L15.1629 8.83246C15.604 8.0421 15.9848 7.35954 15.9999 5.68661C16.0003 5.63539 15.9995 5.58311 15.9986 5.52921ZM14.4183 8.42242L14.3559 8.53487C13.8348 9.42961 13.2802 10.55 13.2945 12.5303C13.2957 14.963 12.8331 16.0984 12.5584 16.5575C12.2002 17.1504 12.1246 17.1532 11.9043 17.1532C11.891 17.1522 11.8209 17.143 11.759 17.0718C11.6912 16.9939 11.584 16.7874 11.6287 16.2825C11.7255 15.175 11.5807 13.8711 11.2306 12.7024C11.0752 12.1941 10.8859 11.6514 10.5567 11.1244C10.191 10.5387 9.66293 10.2162 9.07017 10.2162C8.366 10.2162 7.74999 10.6673 7.45163 11.1138C7.09522 11.6481 6.91999 12.2166 6.77883 12.6736L6.76909 12.7053C6.42061 13.8742 6.40295 14.9747 6.38889 15.8588C6.38312 16.218 6.37825 16.528 6.35157 16.7982C6.35121 16.8018 6.31768 17.1532 6.10116 17.1532C5.83633 17.1532 5.80226 17.1532 5.44278 16.5593C5.16732 16.0984 4.7049 14.9625 4.70707 12.5334C4.72149 10.5493 4.16713 9.42961 3.65081 8.54364L3.58267 8.42099C3.16604 7.67468 2.86498 7.13554 2.85272 5.68678C2.85272 5.64578 2.85344 5.60245 2.85416 5.55697L2.8556 5.44542C2.89004 4.52345 3.19489 3.93095 3.87256 3.46737C4.31875 3.16745 4.92863 2.96565 5.63802 2.88329L6.84625 2.86753C7.50012 2.92143 8.13092 3.06825 8.58342 3.2731L8.81526 3.3748L10.4769 4.25057C10.5403 4.28405 10.6087 4.29999 10.6761 4.29999C10.8288 4.29999 10.9763 4.21852 11.0529 4.07527C11.1632 3.86864 11.0841 3.61259 10.8762 3.503L10.0348 3.05966C10.5331 2.92555 11.1124 2.84676 11.6734 2.84676H11.693C12.6528 2.84676 13.5411 3.07291 14.1257 3.46397C14.8054 3.93024 15.1102 4.52291 15.1452 5.43413L15.1468 5.54372C15.1477 5.59278 15.1486 5.64041 15.1486 5.68302C15.1353 7.13733 14.8344 7.67629 14.4183 8.42242Z"/>
</mask>
<path d="M15.8607 5.41899L15.8622 5.5241C15.8636 5.57997 15.8643 5.63368 15.8649 5.68686C15.8497 7.32237 15.4773 7.99079 15.0453 8.7645L14.9793 8.88285C14.4809 9.7391 13.9981 10.7214 14.0107 12.5283C14.012 15.0014 13.5568 16.2813 13.174 16.9193C12.7233 17.666 12.4626 17.8586 11.9067 17.8586C11.8434 17.8586 11.5146 17.8439 11.2479 17.5549C10.9826 17.2676 10.8753 16.8188 10.9274 16.221C11.0163 15.2141 10.8775 13.9745 10.5575 12.9057C10.4158 12.4447 10.2452 11.953 9.96002 11.4962C9.72169 11.1146 9.42459 10.9214 9.07665 10.9214C8.63822 10.9214 8.23746 11.2229 8.05033 11.5034C7.75248 11.9494 7.59425 12.4604 7.46685 12.8718L7.4655 12.8762L7.45541 12.9082C7.13584 13.9807 7.119 15.0278 7.10549 15.8688C7.09972 16.2283 7.09395 16.5678 7.06528 16.8588C7.03409 17.2572 6.75268 17.8586 6.10764 17.8586C5.4992 17.8586 5.27926 17.6477 4.83938 16.9209C4.45647 16.2804 4.00109 15.0005 4.00307 12.5299C4.01623 10.7216 3.53362 9.74 3.03786 8.88912L2.9674 8.76226C2.53551 7.98885 2.16224 7.32039 2.14872 5.68937C2.14872 5.64317 2.14944 5.59662 2.14998 5.54809L2.15143 5.42813C2.19415 4.28037 2.616 3.47497 3.4781 2.88444C4.02506 2.51684 4.75285 2.27386 5.58447 2.18021C5.59385 2.17896 5.6034 2.17842 5.61278 2.17824L6.86265 2.16177C6.87112 2.16141 6.88068 2.16195 6.88897 2.16266C7.62883 2.22157 8.35446 2.39132 8.87943 2.62875L9.00634 2.68479L9.13669 2.62785C9.81363 2.32328 10.7585 2.14135 11.6609 2.14135H11.6813C12.8126 2.14135 13.8191 2.40439 14.5321 2.88176C15.3963 3.47443 15.8178 4.28001 15.8607 5.41899Z" stroke="white" stroke-width="4" mask="url(#path-1-outside-1_2128_2324)"/>
<path d="M15.9986 5.52921L15.9967 5.41354C15.9516 4.2264 15.5108 3.38536 14.6054 2.76457C13.8688 2.27163 12.8344 2 11.6756 2H11.6545C10.7327 2 9.76605 2.18694 9.07215 2.49867L9.00004 2.53055L8.9319 2.50064C8.38457 2.25301 7.66075 2.08308 6.89403 2.0222C6.88123 2.02113 6.86753 2.02059 6.85455 2.02095L5.60467 2.03724C5.59025 2.03742 5.57637 2.03814 5.56213 2.03975C4.70779 2.1359 3.95837 2.38694 3.39121 2.76815C2.48892 3.3859 2.04777 4.22675 2.00306 5.42661L2.00144 5.54318C2.00072 5.59332 2 5.6413 2 5.69001C2.01442 7.35757 2.39553 8.04013 2.83685 8.83085L2.9086 8.95941C3.3941 9.7931 3.86715 10.7554 3.85453 12.5294C3.85236 15.0323 4.31856 16.3373 4.71085 16.9932C5.14388 17.7083 5.39068 17.9996 6.10098 17.9996C6.76423 17.9996 7.15651 17.4285 7.20032 16.8721C7.22934 16.5758 7.23493 16.2341 7.2407 15.8723C7.25422 15.0395 7.27081 14.0033 7.58503 12.9493L7.59369 12.9212C7.71844 12.5167 7.87366 12.0132 8.16211 11.5812C8.33409 11.3235 8.70132 11.0624 9.07017 11.0624C9.36583 11.0624 9.62236 11.2336 9.83293 11.5702C10.1098 12.0145 10.277 12.4952 10.4149 12.9461C10.73 13.9986 10.8666 15.2185 10.7798 16.2091C10.7233 16.8478 10.8436 17.3327 11.1365 17.6507C11.4358 17.9748 11.7967 18 11.9002 18C12.5719 18 12.86 17.7033 13.2896 16.9919C13.6812 16.3382 14.1474 15.0334 14.1459 12.5273C14.1333 10.7566 14.6069 9.79328 15.0972 8.95099L15.1629 8.83246C15.604 8.0421 15.9848 7.35954 15.9999 5.68661C16.0003 5.63539 15.9995 5.58311 15.9986 5.52921ZM14.4183 8.42242L14.3559 8.53487C13.8348 9.42961 13.2802 10.55 13.2945 12.5303C13.2957 14.963 12.8331 16.0984 12.5584 16.5575C12.2002 17.1504 12.1246 17.1532 11.9043 17.1532C11.891 17.1522 11.8209 17.143 11.759 17.0718C11.6912 16.9939 11.584 16.7874 11.6287 16.2825C11.7255 15.175 11.5807 13.8711 11.2306 12.7024C11.0752 12.1941 10.8859 11.6514 10.5567 11.1244C10.191 10.5387 9.66293 10.2162 9.07017 10.2162C8.366 10.2162 7.74999 10.6673 7.45163 11.1138C7.09522 11.6481 6.91999 12.2166 6.77883 12.6736L6.76909 12.7053C6.42061 13.8742 6.40295 14.9747 6.38889 15.8588C6.38312 16.218 6.37825 16.528 6.35157 16.7982C6.35121 16.8018 6.31768 17.1532 6.10116 17.1532C5.83633 17.1532 5.80226 17.1532 5.44278 16.5593C5.16732 16.0984 4.7049 14.9625 4.70707 12.5334C4.72149 10.5493 4.16713 9.42961 3.65081 8.54364L3.58267 8.42099C3.16604 7.67468 2.86498 7.13554 2.85272 5.68678C2.85272 5.64578 2.85344 5.60245 2.85416 5.55697L2.8556 5.44542C2.89004 4.52345 3.19489 3.93095 3.87256 3.46737C4.31875 3.16745 4.92863 2.96565 5.63802 2.88329L6.84625 2.86753C7.50012 2.92143 8.13092 3.06825 8.58342 3.2731L8.81526 3.3748L10.4769 4.25057C10.5403 4.28405 10.6087 4.29999 10.6761 4.29999C10.8288 4.29999 10.9763 4.21852 11.0529 4.07527C11.1632 3.86864 11.0841 3.61259 10.8762 3.503L10.0348 3.05966C10.5331 2.92555 11.1124 2.84676 11.6734 2.84676H11.693C12.6528 2.84676 13.5411 3.07291 14.1257 3.46397C14.8054 3.93024 15.1102 4.52291 15.1452 5.43413L15.1468 5.54372C15.1477 5.59278 15.1486 5.64041 15.1486 5.68302C15.1353 7.13733 14.8344 7.67629 14.4183 8.42242Z" stroke="white" stroke-width="4" mask="url(#path-1-outside-1_2128_2324)"/>
</svg>
