<svg width="16" height="16" viewBox="0 0 16 16" fill="none" xmlns="http://www.w3.org/2000/svg">
<g clip-path="url(#clip0_2112_2114)">
<path d="M8 0C3.6 0 0 3.6 0 8C0 12.4 3.6 16 8 16C12.4 16 16 12.4 16 8C16 3.6 12.4 0 8 0ZM8 14C4.66667 14 2 11.3333 2 8C2 4.66667 4.66667 2 8 2C11.3333 2 14 4.66667 14 8C14 11.3333 11.3333 14 8 14Z" fill="#002E4F"/>
<path d="M9.33329 7.46659V4.66659C9.33329 3.93325 8.73329 3.33325 7.99996 3.33325C7.26663 3.33325 6.66663 3.93325 6.66663 4.66659V7.99992C6.66663 8.33325 6.79996 8.66658 7.06663 8.93325L9.06663 10.9333C9.33329 11.1999 9.66663 11.3333 9.99996 11.3333C10.3333 11.3333 10.6666 11.1999 10.9333 10.9333C11.4666 10.3999 11.4666 9.59992 10.9333 9.06659L9.33329 7.46659Z" fill="#002E4F"/>
</g>
<defs>
<clipPath id="clip0_2112_2114">
<rect width="16" height="16" fill="white"/>
</clipPath>
</defs>
</svg>
