<svg width="11" height="11" viewBox="0 0 11 11" fill="none" xmlns="http://www.w3.org/2000/svg">
<path d="M8.20661 1.49902C8.40911 1.27402 8.46911 0.944024 8.32661 0.666524C8.13911 0.299024 7.68911 0.149024 7.32161 0.329024L5.82161 1.07902C5.78411 1.09402 5.76161 1.12402 5.73161 1.13902C5.68661 1.17652 5.64161 1.19902 5.60411 1.24402C5.57411 1.27402 5.55161 1.31902 5.52161 1.35652C5.49911 1.39402 5.46911 1.43152 5.45411 1.48402C5.43161 1.53652 5.43161 1.58902 5.42411 1.64152C5.41661 1.67902 5.40161 1.70902 5.40161 1.74652C5.40161 1.75402 5.40911 1.76152 5.40911 1.76902C5.40911 1.82152 5.42411 1.86652 5.43911 1.91902C5.44661 1.96402 5.45411 2.01652 5.47661 2.06152C5.47661 2.06902 5.47661 2.07652 5.48411 2.08402L6.23411 3.58402C6.36161 3.84652 6.62411 3.99652 6.90161 3.99652C7.01411 3.99652 7.12661 3.97402 7.23911 3.91402C7.60661 3.72652 7.75661 3.27652 7.57661 2.90902L7.54661 2.85652C8.49911 3.35902 9.15161 4.34902 9.15161 5.49652C9.15161 6.68902 8.44661 7.76902 7.35161 8.24902C6.96911 8.41402 6.79661 8.85652 6.96161 9.23902C7.08161 9.52402 7.35911 9.68902 7.65161 9.68902C7.74911 9.68902 7.85411 9.66652 7.95161 9.62902C9.59411 8.90152 10.6516 7.28902 10.6516 5.49652C10.6516 3.75652 9.65411 2.24152 8.20661 1.49902Z" fill="#272727"/>
<path d="M6.12911 9.35123C6.13661 9.31373 6.15161 9.28373 6.15161 9.24623C6.15161 9.23873 6.14411 9.23123 6.14411 9.22373C6.14411 9.17123 6.12911 9.12623 6.11411 9.07373C6.09911 9.02123 6.09911 8.97623 6.07661 8.93123C6.07661 8.92373 6.07661 8.91623 6.06911 8.90873L5.31911 7.40873C5.13161 7.04123 4.68161 6.89123 4.31411 7.07123C3.94661 7.25873 3.79661 7.70872 3.97661 8.07622L4.00661 8.12873C3.05411 7.63373 2.40161 6.64373 2.40161 5.49623C2.40161 4.30373 3.10661 3.22373 4.20161 2.74373C4.58411 2.57873 4.75661 2.13623 4.59161 1.75373C4.42661 1.37873 3.98411 1.20623 3.60161 1.37123C1.95911 2.09123 0.901611 3.70373 0.901611 5.49623C0.901611 7.23623 1.89911 8.75122 3.34661 9.49372C3.14411 9.71873 3.08411 10.0487 3.22661 10.3262C3.36161 10.5962 3.62411 10.7462 3.90161 10.7462C4.01411 10.7462 4.12661 10.7237 4.23911 10.6637L5.73911 9.91373C5.76911 9.89873 5.79161 9.86872 5.82161 9.84623C5.86661 9.81623 5.91161 9.78623 5.94911 9.74872C5.97911 9.71123 6.00161 9.67373 6.03161 9.62873C6.05411 9.59123 6.08411 9.55373 6.09911 9.50123C6.11411 9.45623 6.12161 9.40373 6.12911 9.35123Z" fill="#272727"/>
</svg>
