<svg width="31" height="31" viewBox="0 0 31 31" fill="none" xmlns="http://www.w3.org/2000/svg">
<path d="M15.4818 0.875977C7.19878 0.875977 0.459869 7.61489 0.459869 15.8979C0.459869 24.1809 7.19878 30.9198 15.4818 30.9198C23.7648 30.9198 30.5037 24.1809 30.5037 15.8979C30.5037 7.61489 23.7648 0.875977 15.4818 0.875977ZM15.6262 7.80916C16.6546 7.80916 17.66 8.11413 18.5151 8.6855C19.3702 9.25687 20.0367 10.069 20.4303 11.0191C20.8238 11.9693 20.9268 13.0148 20.7262 14.0235C20.5255 15.0322 20.0303 15.9587 19.3031 16.6859C18.5759 17.4131 17.6493 17.9084 16.6407 18.109C15.632 18.3097 14.5865 18.2067 13.6363 17.8131C12.6861 17.4196 11.874 16.7531 11.3027 15.898C10.7313 15.0428 10.4263 14.0375 10.4263 13.009C10.4263 11.63 10.9742 10.3073 11.9493 9.33217C12.9245 8.35701 14.2471 7.80916 15.6262 7.80916ZM15.4818 28.6087C13.7286 28.6094 11.9943 28.2465 10.3885 27.543C8.78267 26.8394 7.34024 25.8104 6.1523 24.521C6.79073 21.2148 12.5251 20.52 15.4818 20.52C18.4385 20.52 24.1728 21.2148 24.8112 24.5203C23.6234 25.8099 22.1811 26.8391 20.5752 27.5428C18.9694 28.2465 17.235 28.6095 15.4818 28.6087Z" fill="#003459"/>
</svg>
