<svg width="13" height="13" viewBox="0 0 13 13" fill="none" xmlns="http://www.w3.org/2000/svg">
<path d="M8.37309 9.42554C7.91998 9.42554 7.55214 9.05771 7.55087 8.60332L7.55087 2.98267L9.19532 2.98267L9.19532 8.60332C9.19659 9.05771 8.82875 9.42554 8.37309 9.42554Z" fill="#002E4F"/>
<path d="M2.741 3.81128C2.74101 3.35817 3.10884 2.99033 3.56323 2.98906L9.18388 2.98906L9.18388 4.6335L3.56196 4.63223C3.10884 4.63223 2.741 4.26439 2.741 3.81128Z" fill="#002E4F"/>
<path d="M2.98148 9.19392C2.66074 8.87318 2.66074 8.35388 2.98148 8.03059L6.95641 4.05566L8.11975 5.21899L4.14482 9.19392C3.82534 9.51594 3.3035 9.51594 2.98148 9.19392Z" fill="#002E4F"/>
</svg>
